# xmcd
#
# Track frame offsets: 
#        150
#        19623
#        35547
#        52529
#        70654
#        85134
#        101999
#        123344
#        136829
#        163006
#        179493
#
# Disc length: 2663 seconds
#
# Revision: 0
# Processed by: cddbd v1.5.2PL0 Copyright (c) Steve Scherf et al.
# Submitted via: ExactAudioCopy v1.3
#
DISCID=870a650b
DTITLE=Ronny Aagren and His Blues Gumbo - Close To You
DYEAR=2017
DGENRE=Blues Rock
TTITLE0=Trying To Get Close To You
TTITLE1=Walking With The Devil
TTITLE2=I Don’t Care
TTITLE3=There Is Hope
TTITLE4=I Love That Lady
TTITLE5=Silence
TTITLE6=After Midnight
TTITLE7=A Question Of Time
TTITLE8=Precious Lord
TTITLE9=Bring Me Home
TTITLE10=Sometimes
EXTD=
EXTT0=
EXTT1=
EXTT2=
EXTT3=
EXTT4=
EXTT5=
EXTT6=
EXTT7=
EXTT8=
EXTT9=
EXTT10=
PLAYORDER=
